<svg width="7" height="34" viewBox="0 0 7 34" fill="none" xmlns="http://www.w3.org/2000/svg">
<path d="M3.5 0C5.425 0 7 1.7 7 3.77778C7 5.85556 5.425 7.55556 3.5 7.55556C1.575 7.55556 0 5.85556 0 3.77778C0 1.7 1.575 0 3.5 0ZM3.5 26.4444C5.425 26.4444 7 28.1444 7 30.2222C7 32.3 5.425 34 3.5 34C1.575 34 0 32.3 0 30.2222C0 28.1444 1.575 26.4444 3.5 26.4444ZM3.5 13.2222C5.425 13.2222 7 14.9222 7 17C7 19.0778 5.425 20.7778 3.5 20.7778C1.575 20.7778 0 19.0778 0 17C0 14.9222 1.575 13.2222 3.5 13.2222Z" fill="#9F9F9F"/>
</svg>
