<svg width="210" height="78" viewBox="0 0 210 78" fill="none" xmlns="http://www.w3.org/2000/svg">
<path d="M15.64 1.10332C14.52 1.70332 13.5999 2.64332 13.0099 3.76332C10.4599 8.65332 12.8 13.5233 16.81 15.2033C17.75 15.5933 18.78 15.8133 19.86 15.8133C21.07 15.8133 22.21 15.5433 23.23 15.0633C25.91 13.8033 27.77 11.0733 27.77 7.91332C27.77 2.18332 21.69 -2.11668 15.64 1.10332ZM78.65 21.6633C76.7 19.6733 74.43 18.1733 72 17.1733C69.58 16.1733 66.99 15.6733 64.41 15.6733C59.38 15.6733 54.34 17.5733 50.46 21.3733L40.54 31.0933C36.91 34.7333 33.28 38.3833 29.65 42.0233C28.7 43.1233 27.75 43.8833 27.03 44.3733C26.37 44.8233 25.24 45.5933 23.56 46.0733C21.19 46.7533 18.5199 46.6533 15.7599 45.5433C13.5799 44.6633 11.78 43.0333 10.73 40.9333C6.54998 32.5633 12.57 24.2333 20.5 24.2333C26.03 24.2333 30.62 28.2733 31.48 33.5533L38.9 26.3233C36.55 21.5533 32.39 17.8233 27.32 16.0333C25.36 17.8333 22.74 18.9333 19.87 18.9333C17.19 18.9333 14.72 17.9733 12.81 16.3633C5.3 19.4033 0 26.7633 0 35.3733C0 46.6933 9.18 55.8633 20.5 55.8633C20.96 55.8633 21.42 55.8533 21.87 55.8133C21.87 55.8133 24.3 55.6533 26.53 54.9633C30.42 53.7633 33.79 50.7833 34.3 50.3333L36.5099 48.1633L43.2 41.6033L58.16 56.5633L49.1 65.4433C47.11 67.3933 44.48 68.4633 41.69 68.4633C38.82 68.4633 36.14 67.3433 34.14 65.2933C32.33 63.4433 31.28 61.0533 31.13 58.4933C28.07 59.2033 25 59.9033 21.94 60.6133C22.5 64.7033 24.33 68.6633 27.45 71.8433C29.4 73.8333 31.67 75.3333 34.1 76.3233C36.52 77.3233 39.11 77.8233 41.69 77.8233C46.73 77.8233 51.77 75.9233 55.65 72.1233L78.37 49.8533C86.23 42.1533 86.36 29.5233 78.65 21.6633ZM71.81 43.1733L61.62 53.1633L46.67 38.2133L57.0099 28.0733C58.9999 26.1233 61.63 25.0533 64.41 25.0533C67.28 25.0533 69.96 26.1833 71.96 28.2233C73.94 30.2433 75.01 32.9033 74.98 35.7333C74.95 38.5533 73.83 41.1933 71.81 43.1733Z" fill="url(#paint0_linear_181_400)"/>
<path d="M146.18 9.90359C146.89 9.03359 148.21 8.6536 149.33 8.4136C149.23 7.2036 149.2 6.88359 149.25 6.18359C146.85 6.36359 143.44 8.41361 144.64 10.8836L143.57 10.9336L143.18 13.1036H149.73V10.8836C148.66 10.9836 146.54 10.8136 146.18 9.90359Z" fill="#1A1A1A"/>
<path d="M209.138 25.482V36.452H190.979V31.522H204.159V25.242C204.119 24.022 203.639 22.952 202.739 22.072C201.819 21.192 200.729 20.752 199.479 20.752H193.439V15.832H199.479C202.119 15.832 204.419 16.782 206.309 18.652C208.189 20.532 209.138 22.832 209.138 25.482Z" fill="#1A1A1A"/>
<path d="M174.63 15.8242C171.99 15.8242 169.7 16.7742 167.82 18.6442C165.94 20.5242 165.02 22.7642 165.02 25.4842V36.4542H180.9L180.76 37.1742C180.54 38.3142 180.01 39.2942 179.17 40.1042C178.29 40.9542 177.27 41.3942 176.16 41.3942H174.81V43.9342H176.16C178.84 43.9342 181.07 43.0042 182.97 41.0842C184.85 39.1842 185.77 36.9542 185.77 34.2742V15.8342H174.63V15.8242ZM180.23 30.9142H170.56V25.3142C170.61 24.2342 171.03 23.3242 171.82 22.5742C172.59 21.8442 173.64 21.4542 174.7 21.4542H180.23V30.9142Z" fill="#1A1A1A"/>
<path d="M159.799 6.71484H154.869V36.4449H159.799V6.71484Z" fill="#1A1A1A"/>
<path d="M148.799 15.8247V33.0147C148.779 33.6147 148.649 34.1947 148.369 34.7847C147.859 35.9147 147.029 36.4347 145.759 36.4347H132.529C129.369 36.4347 128.999 34.8847 128.879 34.3647L125.599 21.8647C125.419 21.2047 124.819 20.7347 124.139 20.7347H121.859C121.469 20.7347 121.099 20.9147 120.859 21.2247C120.619 21.5347 120.529 21.9347 120.629 22.3147L124.219 36.4347H107.829C105.149 36.4347 102.899 35.5047 100.969 33.6047C99.0791 31.7147 98.1191 29.4147 98.1191 26.7747V25.4047C98.1191 22.7847 99.0191 20.5747 100.869 18.6747C102.539 16.9647 104.569 16.0147 106.909 15.8347V20.7947C105.919 20.9647 105.059 21.4347 104.339 22.2047C103.479 23.1147 103.049 24.1847 103.049 25.4047V26.7747C103.049 28.0647 103.539 29.1847 104.489 30.0947C105.429 31.0247 106.549 31.5047 107.839 31.5047H118.209L115.519 21.3347C115.169 20.0047 115.449 18.6147 116.289 17.5247C117.129 16.4347 118.399 15.8147 119.779 15.8147H126.319C129.469 15.8147 129.849 17.3247 129.969 17.8347L130.389 19.3347L133.369 31.5047H143.849V15.8047H148.799V15.8247Z" fill="#1A1A1A"/>
<path d="M109.93 42.0942C111.04 42.0942 111.94 41.1943 111.94 40.0842C111.94 38.9741 111.04 38.0742 109.93 38.0742C108.82 38.0742 107.92 38.9741 107.92 40.0842C107.92 41.1943 108.82 42.0942 109.93 42.0942Z" fill="#1A1A1A"/>
<path d="M114.76 42.0942C115.87 42.0942 116.77 41.1943 116.77 40.0842C116.77 38.9741 115.87 38.0742 114.76 38.0742C113.65 38.0742 112.75 38.9741 112.75 40.0842C112.75 41.1943 113.65 42.0942 114.76 42.0942Z" fill="#1A1A1A"/>
<path d="M118.63 57.2814C118.34 56.3214 117.94 55.4214 117.41 54.5814C116.89 53.7514 116.25 52.9714 115.52 52.2814C114.8 51.5914 113.97 50.9914 113.07 50.5014C112.17 50.0114 111.2 49.6214 110.17 49.3514C109.15 49.0914 108.07 48.9414 106.95 48.9414H99.9805V71.6014H106.95C108.06 71.6014 109.15 71.4714 110.17 71.1914C111.2 70.9314 112.17 70.5414 113.07 70.0414C113.97 69.5414 114.79 68.9414 115.52 68.2614C116.24 67.5714 116.88 66.8014 117.41 65.9614C117.93 65.1314 118.34 64.2214 118.63 63.2614C118.91 62.3114 119.05 61.3014 119.05 60.2614C119.05 59.2514 118.91 58.2314 118.63 57.2814ZM114.79 63.4314C114.35 64.4014 113.74 65.2614 112.97 65.9914C112.2 66.7114 111.3 67.2914 110.27 67.7014C109.24 68.1114 108.14 68.3214 106.97 68.3214H103.63V52.2414H106.97C108.13 52.2414 109.24 52.4614 110.27 52.8714C111.29 53.2914 112.2 53.8714 112.97 54.5914C113.74 55.3114 114.36 56.1714 114.79 57.1414C115.23 58.1114 115.46 59.1714 115.46 60.2814C115.46 61.3914 115.23 62.4514 114.79 63.4314Z" fill="#1A1A1A"/>
<path d="M142.02 54.4224C141.53 53.3424 140.84 52.3824 139.99 51.5824C139.13 50.7824 138.11 50.1223 136.96 49.6623C134.65 48.7323 131.83 48.7323 129.53 49.6623C128.37 50.1323 127.36 50.7724 126.51 51.5824C125.66 52.3824 124.98 53.3424 124.48 54.4224C123.99 55.4924 123.74 56.6524 123.74 57.8624V71.6023H127.32V66.7523H139.18V71.6023H142.77V57.8624C142.76 56.6424 142.51 55.4824 142.02 54.4224ZM139.17 63.4923H127.31V57.8624C127.31 57.0924 127.47 56.3523 127.79 55.6623C128.09 54.9823 128.53 54.3823 129.07 53.8823C129.6 53.3723 130.24 52.9723 130.96 52.6823C132.39 52.1023 134.11 52.1023 135.54 52.6823C136.26 52.9723 136.89 53.3723 137.43 53.8823C137.97 54.3923 138.4 54.9923 138.71 55.6623C139.02 56.3523 139.19 57.0924 139.19 57.8624V63.4923H139.17Z" fill="#1A1A1A"/>
<path d="M169.191 48.9531V65.4731C169.191 65.9131 169.101 66.3531 168.911 66.7531C168.731 67.1431 168.491 67.4831 168.191 67.7731C167.891 68.0631 167.531 68.2831 167.121 68.4431C166.321 68.7631 165.341 68.7631 164.531 68.4431C164.131 68.2831 163.771 68.0631 163.471 67.7731C163.161 67.4831 162.921 67.1331 162.751 66.7431C162.571 66.3431 162.491 65.9131 162.491 65.4731V48.9531H158.901V65.4731C158.901 65.9131 158.811 66.3431 158.641 66.7431C158.471 67.1331 158.221 67.4831 157.921 67.7731C157.621 68.0631 157.261 68.2831 156.851 68.4431C156.061 68.7631 155.071 68.7631 154.261 68.4431C153.861 68.2831 153.501 68.0631 153.201 67.7731C152.901 67.4831 152.651 67.1331 152.481 66.7431C152.311 66.3431 152.221 65.9131 152.221 65.4731V48.9531H148.631V65.4731C148.631 66.3631 148.811 67.2031 149.161 67.9831C149.521 68.7731 150.021 69.4631 150.641 70.0431C151.261 70.6331 152.011 71.1031 152.851 71.4331C154.451 72.0831 156.381 72.1231 158.071 71.5231C158.861 71.2431 159.571 70.8231 160.201 70.2831L160.711 69.8431L161.221 70.2831C161.851 70.8231 162.571 71.2431 163.351 71.5231C165.021 72.1231 166.961 72.0831 168.561 71.4331C169.401 71.0931 170.151 70.6331 170.771 70.0431C171.391 69.4631 171.881 68.7631 172.241 67.9831C172.601 67.2031 172.771 66.3531 172.771 65.4731V48.9531H169.191Z" fill="#1A1A1A"/>
<path d="M196.901 54.4224C196.411 53.3424 195.721 52.3824 194.871 51.5824C194.011 50.7824 192.991 50.1223 191.841 49.6623C189.541 48.7323 186.711 48.7323 184.411 49.6623C183.261 50.1323 182.241 50.7724 181.391 51.5824C180.541 52.3824 179.861 53.3424 179.361 54.4224C178.871 55.4924 178.621 56.6524 178.621 57.8624V71.6023H182.201V66.7523H194.061V71.6023H197.651V57.8624C197.641 56.6424 197.401 55.4824 196.901 54.4224ZM194.051 63.4923H182.191V57.8624C182.191 57.0924 182.351 56.3523 182.671 55.6623C182.971 54.9823 183.411 54.3823 183.951 53.8823C184.481 53.3723 185.121 52.9723 185.841 52.6823C187.271 52.1023 188.991 52.1023 190.421 52.6823C191.141 52.9723 191.771 53.3723 192.311 53.8823C192.851 54.3923 193.281 54.9923 193.591 55.6623C193.901 56.3523 194.071 57.0924 194.071 57.8624V63.4923H194.051Z" fill="#1A1A1A"/>
<path d="M203.67 48.9531V71.6131H207.26V48.9531H203.67Z" fill="#1A1A1A"/>
<defs>
<linearGradient id="paint0_linear_181_400" x1="67.451" y1="60.9439" x2="10.1902" y2="4.52754" gradientUnits="userSpaceOnUse">
<stop stop-color="#5878FF"/>
<stop offset="0.1302" stop-color="#5598E4"/>
<stop offset="0.3054" stop-color="#51BDC6"/>
<stop offset="0.4815" stop-color="#4FD9AE"/>
<stop offset="0.6564" stop-color="#4DEE9D"/>
<stop offset="0.8299" stop-color="#4BFA92"/>
<stop offset="1" stop-color="#4BFE8F"/>
</linearGradient>
</defs>
</svg>
