<svg width="34" height="43" viewBox="0 0 34 43" fill="none" xmlns="http://www.w3.org/2000/svg">
<path d="M13.3571 34.6389H20.6429V28.6667H26.7143V21.5H20.6429V15.5278H13.3571V21.5H7.28571V28.6667H13.3571V34.6389ZM4.85714 43C3.52143 43 2.37838 42.5326 1.428 41.5977C0.477619 40.6629 0.00161905 39.5377 0 38.2222V11.9444C0 10.6306 0.476 9.50618 1.428 8.57133C2.38 7.63648 3.52305 7.16826 4.85714 7.16667H29.1429C30.4786 7.16667 31.6224 7.63489 32.5744 8.57133C33.5264 9.50778 34.0016 10.6321 34 11.9444V38.2222C34 39.5361 33.5248 40.6613 32.5744 41.5977C31.624 42.5342 30.4802 43.0016 29.1429 43H4.85714ZM2.42857 4.77778V0H31.5714V4.77778H2.42857Z" fill="#A4A4A4"/>
</svg>
