<svg width="39" height="39" viewBox="0 0 39 39" fill="none" xmlns="http://www.w3.org/2000/svg">
<path d="M19.5009 3.25C22.5177 3.25 25.411 4.44843 27.5442 6.58166C29.6774 8.71489 30.8759 11.6082 30.8759 14.625V20.358C30.8756 20.6101 30.9341 20.8588 31.0465 21.0844L33.8366 26.663C33.9729 26.9355 34.0373 27.2384 34.0236 27.5428C34.0099 27.8472 33.9186 28.1431 33.7584 28.4023C33.5982 28.6615 33.3744 28.8755 33.1082 29.0238C32.842 29.1722 32.5423 29.25 32.2376 29.25H6.76413C6.4594 29.25 6.15972 29.1722 5.89356 29.0238C5.62739 28.8755 5.40357 28.6615 5.24336 28.4023C5.08315 28.1431 4.99186 27.8472 4.97816 27.5428C4.96447 27.2384 5.02883 26.9355 5.16512 26.663L7.95362 21.0844C8.06663 20.8589 8.12561 20.6102 8.12588 20.358V14.625C8.12588 11.6082 9.32431 8.71489 11.4575 6.58166C13.5908 4.44843 16.484 3.25 19.5009 3.25ZM19.5009 34.125C20.5094 34.1253 21.4932 33.8129 22.3168 33.2309C23.1404 32.6488 23.7632 31.8257 24.0996 30.875H14.9021C15.2385 31.8257 15.8614 32.6488 16.685 33.2309C17.5086 33.8129 18.4924 34.1253 19.5009 34.125Z" fill="#B4B4B4"/>
</svg>
