<svg width="34" height="34" viewBox="0 0 34 34" fill="none" xmlns="http://www.w3.org/2000/svg">
<path d="M21.0827 0C17.7785 0 14.6097 1.31257 12.2733 3.64896C9.93692 5.98535 8.62435 9.15418 8.62435 12.4583C8.62435 15.5442 9.75518 18.3808 11.6143 20.5658L11.0968 21.0833H9.58268L-0.000652313 30.6667L2.87435 33.5417L12.4577 23.9583V22.4442L12.9752 21.9267C15.2361 23.8557 18.1106 24.9158 21.0827 24.9167C24.3868 24.9167 27.5557 23.6041 29.8921 21.2677C32.2284 18.9313 33.541 15.7625 33.541 12.4583C33.541 9.15418 32.2284 5.98535 29.8921 3.64896C27.5557 1.31257 24.3868 0 21.0827 0ZM21.0827 3.83333C25.8743 3.83333 29.7077 7.66667 29.7077 12.4583C29.7077 17.25 25.8743 21.0833 21.0827 21.0833C16.291 21.0833 12.4577 17.25 12.4577 12.4583C12.4577 7.66667 16.291 3.83333 21.0827 3.83333Z" fill="#B4B4B4"/>
</svg>
