<svg width="44" height="44" viewBox="0 0 44 44" fill="none" xmlns="http://www.w3.org/2000/svg">
<path d="M19.6284 4.01527e-06C18.9817 4.01527e-06 18.4031 0.402599 18.1853 1.00539L16.6321 5.31074C16.0756 5.44934 15.5982 5.58794 15.1934 5.73313C14.7512 5.89153 14.1814 6.13133 13.4774 6.45913L9.86077 4.54515C9.56556 4.38875 9.2276 4.33229 8.89758 4.38425C8.56757 4.43621 8.2633 4.59379 8.03043 4.83335L4.84934 8.12231C4.42696 8.5601 4.30816 9.20029 4.54575 9.75909L6.24189 13.7344C5.9603 14.2514 5.73591 14.6936 5.56432 15.0632C5.37952 15.4658 5.15073 16.0202 4.87794 16.7352L0.924679 18.4292C0.330699 18.6822 -0.0366896 19.2762 0.00290904 19.912L0.293299 24.4769C0.313149 24.7735 0.419627 25.0577 0.59952 25.2943C0.779414 25.5309 1.02481 25.7095 1.30527 25.8079L5.04954 27.1389C5.15733 27.6559 5.26953 28.0981 5.38832 28.4721C5.57993 29.0497 5.7987 29.6179 6.0439 30.1748L4.16297 34.3328C4.03021 34.6249 3.99447 34.9519 4.06098 35.2658C4.12748 35.5798 4.29274 35.8642 4.53255 36.0774L8.10963 39.2717C8.34521 39.4812 8.63917 39.6137 8.95214 39.6514C9.26512 39.6892 9.58215 39.6304 9.86077 39.4829L13.5478 37.5293C14.1247 37.8348 14.7198 38.1044 15.3298 38.3367L16.9401 38.9395L18.3701 42.8995C18.476 43.1895 18.6672 43.4407 18.9185 43.6201C19.1697 43.7995 19.4693 43.8988 19.778 43.9049L23.9579 43.9995C24.2748 44.0078 24.5864 43.9177 24.85 43.7416C25.1135 43.5655 25.316 43.312 25.4296 43.0161L27.1148 38.5567C27.6897 38.3602 28.259 38.1475 28.8219 37.9187C29.2823 37.7195 29.7358 37.5045 30.1815 37.2742L34.3613 39.0605C34.6367 39.178 34.9404 39.2129 35.2353 39.161C35.5302 39.109 35.8036 38.9725 36.0223 38.7679L39.1154 35.8662C39.3456 35.6511 39.5025 35.369 39.5637 35.0599C39.6249 34.7508 39.5873 34.4302 39.4563 34.1436L37.659 30.2276C37.898 29.7638 38.1197 29.2912 38.3234 28.8109C38.5612 28.2229 38.7813 27.6279 38.9834 27.0267L42.9212 25.8277C43.2413 25.7309 43.5205 25.5312 43.7154 25.2595C43.9103 24.9878 44.0101 24.6593 43.9992 24.3251L43.8452 20.099C43.8342 19.8232 43.7481 19.5557 43.5961 19.3254C43.4441 19.0951 43.232 18.9107 42.9828 18.7922L38.8514 16.8078C38.66 16.106 38.4928 15.5604 38.3454 15.1622C38.1378 14.6304 37.9074 14.1078 37.6546 13.5958L39.4453 9.81189C39.5812 9.52453 39.6225 9.20148 39.5632 8.88919C39.5039 8.57689 39.3471 8.29145 39.1154 8.07391L36.0267 5.15674C35.8101 4.95252 35.5392 4.81522 35.2465 4.76136C34.9538 4.7075 34.6518 4.73937 34.3767 4.85315L30.2013 6.57792C29.7393 6.26993 29.3213 6.02133 28.9429 5.82113C28.4919 5.58134 27.8891 5.33054 27.1302 5.05994L25.6782 1.00979C25.5709 0.713386 25.3747 0.457337 25.1164 0.276609C24.8581 0.0958807 24.5503 -0.000717743 24.2351 4.01527e-06H19.6284ZM21.9472 15.4416C25.6144 15.4416 28.5865 18.3786 28.5865 22.0041C28.5865 25.6297 25.6144 28.5689 21.9472 28.5689C18.2821 28.5689 15.31 25.6297 15.31 22.0041C15.31 18.3786 18.2799 15.4416 21.9472 15.4416Z" fill="#A4A4A4"/>
</svg>
